<mxfile host="app.diagrams.net" modified="2023-11-01T23:09:55.454Z" agent="Mozilla/5.0 (X11; Linux x86_64; rv:109.0) Gecko/20100101 Firefox/119.0" etag="IFIoevA1txGCrlEOIkh8" version="22.0.8" type="github">
  <diagram name="Page-1" id="tzEw0UJNLU1c9JRV6xMy">
    <mxGraphModel dx="2049" dy="1086" grid="1" gridSize="10" guides="1" tooltips="1" connect="1" arrows="1" fold="1" page="1" pageScale="1" pageWidth="827" pageHeight="1169" math="0" shadow="0">
      <root>
        <mxCell id="0" />
        <mxCell id="1" parent="0" />
        <mxCell id="cMmRfgZ6tOzaxmHmKuGl-1" value="" style="shape=image;verticalLabelPosition=bottom;labelBackgroundColor=default;verticalAlign=top;aspect=fixed;imageAspect=0;image=data:image/png,iVBORw0KGgoAAAANSUhEUgAAArgAAAE+CAQAAADMyKv8AAAAxXpUWHRSYXcgcHJvZmlsZSB0eXBlIGV4aWYAAHjabVDRDQMhCP1nio6AgIrjeD2bdIOOXxQuqZe+xAcCPgEYn/cLHhOUBCRXLa0UNEiTRt0cRUdfnFAWLxyKFNEtDjzCJbNslj2hxW264vHgsqmbl3+E9BmJY080cUt6E4qPeHY0eztDqIUQkydSCHQfC0vTuo02cIf6gUlcfe5L5H6Xats7swWZaHBiNGYWb4DnYeBuTlucrRCtoM9S48wlOrGF/NvTBfgCgixZhjLJa5wAAAEhaUNDUElDQyBwcm9maWxlAAB4nJ2QvUrEUBCFv6z/opViIRYpbLc0NhauCkFQiHEFo1U2yeJiEkOSZfENfBN9mC0EwVewV7D23GhhYRovTM7HMHPOvYGOnUZZNbsPWV6Xrt8LLoMre+GNJebo6LsbRlXR87wTWs/nK5bRl67xap/788zHSRVJp6o8KsoarD2xM6kLwyrWb/v+ofhBbMdZHoufxNtxFhs2u36WjqMfT3OblSS/ODd91RYux5ziYTNgzIiUmq40V+cIhx2pS0nIPRWRNCVRb6KZmhtRJSeXA1FfpNu05G02eZ5SBvIYycsk3JHJ0+Rh/u/32sdZs2ltTIuwDJvWjKozHML7I6wGsPYMy9ctWYu/39Yy4zQz/3zjF+3aUGegLsZVAAAOW2lUWHRYTUw6Y29tLmFkb2JlLnhtcAAAAAAAPD94cGFja2V0IGJlZ2luPSLvu78iIGlkPSJXNU0wTXBDZWhpSHpyZVN6TlRjemtjOWQiPz4KPHg6eG1wbWV0YSB4bWxuczp4PSJhZG9iZTpuczptZXRhLyIgeDp4bXB0az0iWE1QIENvcmUgNC40LjAtRXhpdjIiPgogPHJkZjpSREYgeG1sbnM6cmRmPSJodHRwOi8vd3d3LnczLm9yZy8xOTk5LzAyLzIyLXJkZi1zeW50YXgtbnMjIj4KICA8cmRmOkRlc2NyaXB0aW9uIHJkZjphYm91dD0iIgogICAgeG1sbnM6eG1wTU09Imh0dHA6Ly9ucy5hZG9iZS5jb20veGFwLzEuMC9tbS8iCiAgICB4bWxuczpzdEV2dD0iaHR0cDovL25zLmFkb2JlLmNvbS94YXAvMS4wL3NUeXBlL1Jlc291cmNlRXZlbnQjIgogICAgeG1sbnM6ZGM9Imh0dHA6Ly9wdXJsLm9yZy9kYy9lbGVtZW50cy8xLjEvIgogICAgeG1sbnM6R0lNUD0iaHR0cDovL3d3dy5naW1wLm9yZy94bXAvIgogICAgeG1sbnM6dGlmZj0iaHR0cDovL25zLmFkb2JlLmNvbS90aWZmLzEuMC8iCiAgICB4bWxuczp4bXA9Imh0dHA6Ly9ucy5hZG9iZS5jb20veGFwLzEuMC8iCiAgIHhtcE1NOkRvY3VtZW50SUQ9ImdpbXA6ZG9jaWQ6Z2ltcDo2NGIxMjY4Mi1lNmYwLTRlZDItOWI3Ni1lNDlmZmEwZjZlZWYiCiAgIHhtcE1NOkluc3RhbmNlSUQ9InhtcC5paWQ6ZjA4NjQwODQtY2NhNi00NGQyLTgyNzUtOTM4NmQ1Yjg2ZjJmIgogICB4bXBNTTpPcmlnaW5hbERvY3VtZW50SUQ9InhtcC5kaWQ6ZDBjZWUxMzItMjY0Zi00ZjZhLWE0NjctYjc1YWY3MDk5M2RhIgogICBkYzpGb3JtYXQ9ImltYWdlL3BuZyIKICAgR0lNUDpBUEk9IjIuMCIKICAgR0lNUDpQbGF0Zm9ybT0iTGludXgiCiAgIEdJTVA6VGltZVN0YW1wPSIxNjkzODc5ODU3MjM3NDMyIgogICBHSU1QOlZlcnNpb249IjIuMTAuMzQiCiAgIHRpZmY6T3JpZW50YXRpb249IjEiCiAgIHhtcDpDcmVhdG9yVG9vbD0iR0lNUCAyLjEwIgogICB4bXA6TWV0YWRhdGFEYXRlPSIyMDIzOjA5OjA1VDAzOjEwOjU2KzAxOjAwIgogICB4bXA6TW9kaWZ5RGF0ZT0iMjAyMzowOTowNVQwMzoxMDo1NiswMTowMCI+CiAgIDx4bXBNTTpIaXN0b3J5PgogICAgPHJkZjpTZXE+CiAgICAgPHJkZjpsaQogICAgICBzdEV2dDphY3Rpb249InNhdmVkIgogICAgICBzdEV2dDpjaGFuZ2VkPSIvIgogICAgICBzdEV2dDppbnN0YW5jZUlEPSJ4bXAuaWlkOjAzMjkyMjY5LWVlZTAtNDRlOS05ZjgyLTk2MzFjNmUxNGU1MyIKICAgICAgc3RFdnQ6c29mdHdhcmVBZ2VudD0iR2ltcCAyLjEwIChMaW51eCkiCiAgICAgIHN0RXZ0OndoZW49IjIwMjMtMDktMDVUMDM6MDg6MjkrMDE6MDAiLz4KICAgICA8cmRmOmxpCiAgICAgIHN0RXZ0OmFjdGlvbj0ic2F2ZWQiCiAgICAgIHN0RXZ0OmNoYW5nZWQ9Ii8iCiAgICAgIHN0RXZ0Omluc3RhbmNlSUQ9InhtcC5paWQ6OTk1ZmQwZmQtYTM0Mi00NTc2LThmZTEtOTUzZjNhOTQzZGExIgogICAgICBzdEV2dDpzb2Z0d2FyZUFnZW50PSJHaW1wIDIuMTAgKExpbnV4KSIKICAgICAgc3RFdnQ6d2hlbj0iMjAyMy0wOS0wNVQwMzoxMDo1NyswMTowMCIvPgogICAgPC9yZGY6U2VxPgogICA8L3htcE1NOkhpc3Rvcnk+CiAgPC9yZGY6RGVzY3JpcHRpb24+CiA8L3JkZjpSREY+CjwveDp4bXBtZXRhPgogICAgICAgICAgICAgICAgICAgICAgICAgICAgICAgICAgICAgICAgICAgICAgICAgICAgICAgICAgICAgICAgICAgICAgICAgICAgICAgICAgICAgICAgICAgICAgICAgICAgCiAgICAgICAgICAgICAgICAgICAgICAgICAgICAgICAgICAgICAgICAgICAgICAgICAgICAgICAgICAgICAgICAgICAgICAgICAgICAgICAgICAgICAgICAgICAgICAgICAgICAKICAgICAgICAgICAgICAgICAgICAgICAgICAgICAgICAgICAgICAgICAgICAgICAgICAgICAgICAgICAgICAgICAgICAgICAgICAgICAgICAgICAgICAgICAgICAgICAgICAgIAogICAgICAgICAgICAgICAgICAgICAgICAgICAgICAgICAgICAgICAgICAgICAgICAgICAgICAgICAgICAgICAgICAgICAgICAgICAgICAgICAgICAgICAgICAgICAgICAgICAgCiAgICAgICAgICAgICAgICAgICAgICAgICAgICAgICAgICAgICAgICAgICAgICAgICAgICAgICAgICAgICAgICAgICAgICAgICAgICAgICAgICAgICAgICAgICAgICAgICAgICAKICAgICAgICAgICAgICAgICAgICAgICAgICAgICAgICAgICAgICAgICAgICAgICAgICAgICAgICAgICAgICAgICAgICAgICAgICAgICAgICAgICAgICAgICAgICAgICAgICAgIAogICAgICAgICAgICAgICAgICAgICAgICAgICAgICAgICAgICAgICAgICAgICAgICAgICAgICAgICAgICAgICAgICAgICAgICAgICAgICAgICAgICAgICAgICAgICAgICAgICAgCiAgICAgICAgICAgICAgICAgICAgICAgICAgICAgICAgICAgICAgICAgICAgICAgICAgICAgICAgICAgICAgICAgICAgICAgICAgICAgICAgICAgICAgICAgICAgICAgICAgICAKICAgICAgICAgICAgICAgICAgICAgICAgICAgICAgICAgICAgICAgICAgICAgICAgICAgICAgICAgICAgICAgICAgICAgICAgICAgICAgICAgICAgICAgICAgICAgICAgICAgIAogICAgICAgICAgICAgICAgICAgICAgICAgICAgICAgICAgICAgICAgICAgICAgICAgICAgICAgICAgICAgICAgICAgICAgICAgICAgICAgICAgICAgICAgICAgICAgICAgICAgCiAgICAgICAgICAgICAgICAgICAgICAgICAgICAgICAgICAgICAgICAgICAgICAgICAgICAgICAgICAgICAgICAgICAgICAgICAgICAgICAgICAgICAgICAgICAgICAgICAgICAKICAgICAgICAgICAgICAgICAgICAgICAgICAgICAgICAgICAgICAgICAgICAgICAgICAgICAgICAgICAgICAgICAgICAgICAgICAgICAgICAgICAgICAgICAgICAgICAgICAgIAogICAgICAgICAgICAgICAgICAgICAgICAgICAgICAgICAgICAgICAgICAgICAgICAgICAgICAgICAgICAgICAgICAgICAgICAgICAgICAgICAgICAgICAgICAgICAgICAgICAgCiAgICAgICAgICAgICAgICAgICAgICAgICAgICAgICAgICAgICAgICAgICAgICAgICAgICAgICAgICAgICAgICAgICAgICAgICAgICAgICAgICAgICAgICAgICAgICAgICAgICAKICAgICAgICAgICAgICAgICAgICAgICAgICAgICAgICAgICAgICAgICAgICAgICAgICAgICAgICAgICAgICAgICAgICAgICAgICAgICAgICAgICAgICAgICAgICAgICAgICAgIAogICAgICAgICAgICAgICAgICAgICAgICAgICAgICAgICAgICAgICAgICAgICAgICAgICAgICAgICAgICAgICAgICAgICAgICAgICAgICAgICAgICAgICAgICAgICAgICAgICAgCiAgICAgICAgICAgICAgICAgICAgICAgICAgICAgICAgICAgICAgICAgICAgICAgICAgICAgICAgICAgICAgICAgICAgICAgICAgICAgICAgICAgICAgICAgICAgICAgICAgICAKICAgICAgICAgICAgICAgICAgICAgICAgICAgICAgICAgICAgICAgICAgICAgICAgICAgICAgICAgICAgICAgICAgICAgICAgICAgICAgICAgICAgICAgICAgICAgICAgICAgIAogICAgICAgICAgICAgICAgICAgICAgICAgICAgICAgICAgICAgICAgICAgICAgICAgICAgICAgICAgICAgICAgICAgICAgICAgICAgICAgICAgICAgICAgICAgICAgICAgICAgCiAgICAgICAgICAgICAgICAgICAgICAgICAgICAgICAgICAgICAgICAgICAgICAgICAgICAgICAgICAgICAgICAgICAgICAgICAgICAgICAgICAgICAgICAgICAgICAgICAgICAKICAgICAgICAgICAgICAgICAgICAgICAgICAgCjw/eHBhY2tldCBlbmQ9InciPz6uQCMCAAAAAmJLR0QA/4ePzL8AAAAJcEhZcwAACxMAAAsTAQCanBgAAAAHdElNRQfnCQUCCjlbNac1AAAV4ElEQVR42u2d23rkqA5GS3z1/q+sfbFnptNJygYDQoe1+q5TtkGHH4FtLK/X6/XSFwAA7EUaNgAAsAHBBQBAcAEAEFwAAEBwAQAQXAAABBcTAAAguAAACC4AACC4AAAILgAAAAAAAAAAAAAAAAAAAAAAAAAAAAAAAAAAAAAAAAAAAADkQV6vl2KG8D4EgACwWxgAAIILAIDgAgAAggsAgOACACC4mACcojw/U85L6T2O4AKCoYl6Qw9c8ybjoDPkJUHi6cJziFM/nWiJOD7b+VhGcCFIhWGRfDNnk83XEudeUtde1609edRGlhQA2X/eMtaZ9/hLQ/T5wXIUggtI71xrdq4Ca1nfaKAIHfA/gguI7Ip2Va91tUwUTPkfwQXkF3z6RcNZ5LbFCC4gsGvaJfiNwfZOdBFcQIKps/3aQ3PZBsEFxHVFq6SUPSzbmkpyEVxAhv3KLf6IK7mK4ALsgG9u7JZGzWINBBdiJKw6bFNVudUi19zQagQXIF+iZ7RXCk+wlwJESVY9UEvuWb2VxF7ae+UzlpOJ/n9rMxUuwKpUhN2CrC58/v9/j9qM4EKcRFVnLUJuK9XXvwvvYJsRXADkdq3g6fEWuJ3jILgQqXJRZ+2B2lXuv5Vud4sRXACDyqaY1KmTdriLBgQXYtUs6qI9rN5S5Y5FhCK4AMjtLpGrt3ljV1QguBCtWjk9XaW6hSeRoQguAOwa6NignAoXEiTy2UfrqW9jx87JGhfBBUBuQ1eTwapc9lKIBfVVBrnVVL6Wj/2x2ftAXVlKLne8EwQXofUqcnLxV2XogYjRwJJCBLFFXCymkiwnPB0W5fiEP8zCAoKL2PpNZEuRQ24ZgBHcpcI1uq0aCwmkK57oGRYtalyZ9qGLrM0vuD9FNoroConsYrrKwEeVS4U7mSoZpur6zz+A08Oijxo3gORmfkpBOv6u4VqvxRL5/GNH4Ccnejapdx0TLbFz8k0WqWfB67Bos/gTvsrNKrgy8EsJ0f5sYqtLvGkzXWWYi5XZjv3VyjolVp2rpNTRq1aVXHUYv6Elt5GwjuvcvOmu2CZhlomjDHcaF+8SgdB7pE8naflEtvHN9TVW3oyJcudAl55LzHx1Nm+0kuDK9NGaOOhzJvm6VLaTXOYoFpLLkoJrufVRffz9ooaSrLQbr4eeJ6QVXAnsyIgvHmdMZewfaXgJ6K08gtvzrnXvm1m2wldNZjVwHFHj+vK8hOqj5BFcuZHZr8LWK7rWywekdwQRVyxKlVu9wr1/MF6//bJHdIVQYaIK7r0vkfqXQXDlorb9aQr5IronXUla+01llhU0hQI4bGX8x8L6N3nRL7t36n+/kZuzq1mrSeQ4vWC49GU7Hw+JdbQhdoUrg3tq6S+Cd7e4sCc8rqtx8F3jYkmq3IdWiyq417ebtOMv0m0q2R4a3IihJxBbcju/GdJCGnZmjU1/PY/ePc6B3FLjFvGahj2/+LdZLMHteTVg7B3r3jpXwoY3sKwAe8V24Pb7O1kCaKeJvn4zS/86+vNHeXSLs6g/R8XNy34HOW+dxfaS/c2zwWf6o1S4snFLNuk8R4adGjLUkuKmXcxO/EW65YD74Fb3O5HzdMhY8nFcVLMqN1bC6pTX1KyV1tsA2vhdtp1bFv+ux3Y7ZwfrfaaT7XnFqnBli1H0UhyUCpXqKd2QWaU/4rctrXCg6KWT9ksu67cRBjGWFfbYTo967ZgFWminrXWeveRChFSWMpbURFYQn21o4c02846WPvw7klulvvUyU6n2PEQGm/16/RbcZbrZRJ+ugOR6DnfrGjfLDhHrvSllY/DDtVu4pNUv/9YHWf+mMuJMFKrVtwx58atATdu/j9dtwVJXHQUGKV9nunq2xpXDFhPnbfd2/YtrehZcMQlq7TIWkuuvihFXicvTCl7nedZxcnk9v4IrxwJ6p+RWSUs5ngr2lo7sWz0eCxkkt+N92EZAsLCQXNajC4ccPrMkyGwxuELXNRqpNOByJHelbcWNX1dEZeRvL1eYd+0ctgZ83wiIIefMSy7BnWu6OphwJX3p4xtx4sHz7wBO9iVRv2+7IWmEVBafTV33ZG5DFjk2FMjys6lLL9lFo9GQ+X4BkmuTUGoS4LtFUDo+PZrJT3ukTg7J3vEsfbt2vdcp+JzkVv3m656UthdAKeKn9XblbgcV7sORkA9l+5oQA14KUeN6v2mmoVom4XsFkH8gOSj+zaE5KlQFSC5AQXxXuOr6yjyVCwChBTeWXCG5AJCmwkVyAQDBdTOtp5UAgOA+wktlqNO/psYFgFAVbhyZR3IBILTgxp+qI7kA4FZwYy4oZBkeAKBwhXtK5p9KJ8sKABBGcOOLE5ILACErXA15XSQXAAIKblSZZy0XANwLbp4P9Ck1LgBQ4VpVp0guADgW3FVPCvhdDBBEl8HZ2RVy2g3Bdcyu7zixpQ2SizAhub/g4RM7ktAl9T40yUIKzORG3GFiqDeVv2m29zulFSRXO/8qk2eU7S2WZR6uVgU+segey+2JHR34Rce1zgvu+fpWt503r+Q+2U9NjkpMjamsLsrC3RZdK7nqxJb3cX54DTf7raSca7n6MMA1nV814Nk/+1Qd5Eb0GL899qTgylE3yMGwiiu5yn3m1AWCpX81cYx/PMc5wRUnLtAj55eg6Qi7o0cT9imS5OrefDkjuLWeSs0huYhtrUq3YlSt7/ePM54QXHFgfDF2ZOxhZ1UgZhRtdXy2CC3J32P1saRQR26veicfnmQQR3JMbVtzyl1LctXm3PaPhYkzubV6TOvzgzBy21ItkHaRBViS2lrNbi3L8Z4a9dC6wj1ftUlAp0raQASoUcvrCcE9v3orQR0rBdOgmlzkvmfvt/c2Vz5U4Z409adVUTHtq+W7QMgtUOU6kltbwRW3aS0hXCwJAjGriO/6Vkilp3IjvNYv3/4NY3fTzPcjUGIeWNmeRBaXcsGQEctDfncSu54da++x7WhzPY2fEiBxxWXr5GKxRsq85KIHj57JS0llxz3XureSdDxrZCa44kJueyTXetKuD6Y0voK+z2Y1RDdq7SvO+uXr+d/+2P30TL3xkoK4CtC7ybyYt+vnlm7alQb+E/W0ZZHqft94e8VWQsb4zyj/cfz7WHNPPwZyNwU4vVmdfrChHNpuZ0WtLcklV7d8BbrilzP291o3xfhNlO9cUvApt18n9HcTBHERevGr2/njMtei9Z7TiWEVmT5SLAVXnIdYj+j6kF01TQ4NmZ7IBLZce+65GJdPZ9i1pCAhglIGf6fHQs+TxCG3SHT2uJddZ2jmzY0nt9/rXTmelnIw/ZFbBDS6NfVcjL+LhuPnT1fKwNEkF+zPB4s6Tx1bKNUQv6PCFfduvfpS8MjTsZb1rlWNS31LjevL55qpv++CgSjdbZWh88VPNCp2W/sofj9Q5R7t7foK99MWNX7lVi9cs+YV1yw1LvUtA1d2i26O8Xex8JOHrZfBK5BykKO+9fOhpxTDfSsTVp+CRzt74avaPZEK1Lenol43tlOL2vQQ781JGbu69VbtquGSBWSTD9/70/mocmWr78TTV3vj1GejVcG+Wpea069gKTlDUWC9pKBpQ+fJEgOSC5GEw+eSlR63/NQZalS4sims7EVXy6QfolqvupX8dm0FAk62htZYrbu+0kUIK0hxqof/K0tu/grX6hsJuvCDHUCNW6269SC5sv/K2QVXTANsRHRrTlQRzwge1KOPi6WucluAAF3lOv3yb9+Y3hus1LnItKfK0lMGJ5bczBWuXIigbg72PtmVYIkA52TszBcA9Xju+rLJ9BXzCq7cBM1uye0LWKrcDJG2Zv9nn7GA5FLhdrtLnXw7TRcvLVDjVqtvkdxVrTv8cYR3yrB++knufV+Vvf48uyChwUVHLvec69/UfmckSLghQDo3aA809GSscOU19bbz1lp31XXVLCGpqnPXtz0zLHzvvsI9eYdTjx7fYxehyk04zM/UuH1PgO7ck0MPXftkNu4px7RWhavTv7T4gpQ+rDWoOqhvT4oJ7XK1pCBJUkBMrq3BLIjEX8eKDHvbl9erSO7R22aNjDkYfHOvYGiZlGOoqW2DRHHZiptFj/fmp+gKSVdqmBYGPUfasjnG2zKDRA0UdeHkZx+IRACpMpHcUKVhW9J8SRrGcqwVXrfHQ+JXpzIVrTdLbY3xNm2EDAHjRXJ1+MoB3yZHFqCu5LaJzmfa70qdJJAGSF0kd52PkOcz9jo2k2sPmioptxZEcvuvWUty9ZAoQMIqtw10VJLv4epHcnXgyurMVkj1rHgI9jOQ3EOZ9d7UPQkZMp9fYLR+xVAPDm29W4awy9nLSbS4runc2vf+LBtivN3WtOuNFbNSlkLX7b1hp0kTOndEPfOOlLSdrv59u5DFvc30Kbt+XsBUp6H+THS1mNxmeck9t4VlaeR2/fK9oSM6UIyLO2erm31r/7REDnwme2wToL1LSHosJfdFp7iK+ZiDmhqdQ2891t2S9+Iw0C7h+u2a6ij8/Emu93BWh+l49hq7IuV5TOSbY1hn40+vD1//vSxENZTx/AqdH+sI2+McGg783XTzu5OYve5MXbEtMOmnr3aNP7/ox63+nsoV0iyVqIIXK5v6qU1dVJffDPEjukoiIRpYNUB7Q0lue3RB3SC1kcJRuGoRD2lB21XMR7MV/zZ4sTmh1VAu9vGImJJw1LfOIiKn5IpFC1u3k9fUtL3nQXI9WQXJfWoVKdHLLO2U/a27F9w9iwca5M0WTZ1MWSVXwrdNsGQayf2rdm6mUitD50dyf7bg5HO51LnVZgcVb+6tjvNvZ2uPK9BV3dfQzwPUEiF2f60TLzEHWHHlpV9s2DaJ7fitOL8Byk2KqnWuukpfu4iM7GVxYoEPZ2huguyT6HqXXDG+vjgIaSmQcjXr2wx7XsthW1weJ8vldm6LB3FbY57dFvrq/e1zCaLmSbC6rbL1yO/nEKMW+7WoGvVn9Ruayx5otRFcNTw+p+T6FNz73uf9FNO4eMqjK7Hubemn7YOgBBE2JFccCy70pCp+OiG5zqze8IuBGEe9EuA1LF5ScP0/k5v52gBI7nLBVYw3JXvUuACoRrAK17uY8LIvACQRXAkuZzvbqMFsAQCuBVcm/36+xmUmAAAdgntaRiTQdnes5AJA2Ao33uuEZySXJxUAENxJqZXBIypLLjUuQGDex4R25lgqPWwBEDJhbaer0lUx3stx3Vd9qWoBwguuGl6rV5pG9x2qIbkILgCCu6SyXXskkgsArrC4aSYXte29JFXa+g8AENxDte29LPM1CABAcG9r29HpNt88O3c9AFgquPZrjeNX9Cy51LgAcLTCXX8zye9nJq2XFahxsSgguAYiGFFyAckF+CJVuuWsu0Lb65d9LR9g87tUoYFbLSWvDrMxPvwRSTUUA912jfP7nVlWT+I6BKMNGGrULp5pyT0L6vxMejzB9VnnVqxxdVMfbF+NVgO7jr/io0ciV51EpaeX45cVFC2o3H66hXZWhixf0vCw5qiTrVBXPvJj18g1oE5Hhcc+LTtm9U0zOZ48TMxiiG3kiWOtdjwX3vj+nenFr8e24CH0W6dObmdeo8bV5HUgVS5xsiYOdK/gihuzCMlKEuFF4uV4DHzrf0sRxN7q3Lw1robvQZSWZZJ8Ddhi3dP/lYIr7kwkhBc9e9wLqtysda79jVP9I7iaKFm91Ll2+z5o0ZRhgMGasdqp9ksK5+pcnlxAeug31nTQ+3WC6+eDOB4WF3LVuFo9TZCmMv3a3MKW1rHfZZc6l+Sn/3DY1y25+c6JrhKCbu2kRX3J8HWyFWInuHrUtPrtE+xy1KlCeiATpa1e81HAf/L+XSph5EvnkRIYiyCWpOD3smlgF7F3saTxkKRS4AEZj9tnIrlYcr3Y/vmfrtf6367TFqLJrXT9bd+eyDmEQhb6SAxadyrDxTze7+L7dpuB9gIGmzUt718dj/vECMXDJ39WeApIHvzi2/80QvRA/yVlyu0+AsnNFwXZbfDDHlS4MC8rMhWcmto2iG4WG8qKIxBcEtQ+EKNX+0gu3Mf0r5GN4EYUKU+CIsltgeTW8KhRnd8ITNKT1MKnYAMVLjyXEsFOAH4El5D8bIn4YsXEkfgmNg4JLgauJiJ4HMnF184qXCA18SvgaxPBJRSZMpKGAMsFl/TLkpiKv5FcLHLRr8merRBcIQgZphAYwNf3vAlAU1chsidjTPAtEXDxNx267iN/z1e4hBmVOVBkjFlCUvTywQJD25J8hB4gNFihRm+HZHdOcJHbXMGI57BgZQvIRK87ZZfncMEqKBGcCtVe5Rjq6H9bnnqM8SRk7WFGi8a1FvPzIzu8FzcNOYGskqsDSZd5HqDTlqxQVC3enpGJJVDlUuXW9vKDCGhLG0WYjbmCYQvJxYZ5JVfXCC5yC8gFkpt3ZryulTovuMgtCYMFkFy8/CgG2qKGEFovEpFkxNNphmvZs5rblhiMsEJ4EQ58bCNg8QYIfSa4TCcB+UByxeiYTMOEjgru1YVJQkBykdyspZoskV0dEVyh5qFSBCS3yFLCxn68JwML4YBIU9vVLRh5+yyX7dWBh+RIxD31pL6kp8JFbpEwwGLM477Wuo/93h6X0YrcApSV3L5+a+L+j8uuXgsutS3geSSXfj8rSQcrXGpbAKSHAXqp6LbBEEJsc4eikEJILr3eZ4l358EkGQA8KywqCHPfcxvabuVWqWqZajH8Uu1N9Fqxxb+0i4OQWlIIsBy9Xkj7y3Tyl9gCUOMiPsTLQv+3X36M2AIphOSu7TPx8pfgCmILg6JBpCC58EBw5b93hEkhoMpFcqlxt7W3IbYwIRlEDZKbU3J1T3sbYgtH64CsG5xAhqjW1bHcEFuYFIyZAVuxIDWu6yJibYulvQDmBUMfhbViQWZE7lvYG6ddv0JwYVWY6rZfI7n0Nskw8X4BfEogfRSWYhS8uqSP3myYP2J0zwfIF0WAXlxrwXcdEVxYLRf6aygrNoTglezvoqsDsYDgwja5QGjqSa51jWu/cDDpS9Zw4eyku0LfuH3mdTAWwzYJgguA5NJTwyEAwYWzKSRYsWRPtWYWIbhQVSwEK1aoKTs9YuQdBBf6QhO5QHLp57RFEFwgjbBh1RrXxjdChQvV5UKwoYNeqqs27pnH/XVOBBeQC2xIL3e1+9v5EFwYDSBEF8ldh7rzgey8CoILFQVDsKCbPmra6PjlPAgunKxzpbAFIXN8fzgDggunRbeq2EmBCOmJIXFq+5mWfTySzWtgPnB1W9Bnt56W7aGEiW9dGdcILtjLriz6Tfyac63kSghriFtvzEW32DscmJq+PoQn9eydrYT+BevRgz4huAgu+Ehg/FgAbpoBMGSCmeDibAAkFwAAAAAAAAAAAAAAAAAAAAAAAAAAAAAAAAAAAAAAIA/sFgYAYKO27BYGAGAFggsAgOACACC4AACA4AIAILgAAAguJgAAQHABABBcAABAcAEA3PI/9AcWuzGEvW8AAAAASUVORK5CYII=;" vertex="1" parent="1">
          <mxGeometry x="50" y="350" width="696" height="318" as="geometry" />
        </mxCell>
      </root>
    </mxGraphModel>
  </diagram>
</mxfile>
